# xmcd
#
# Track frame offsets: 
#        150
#        56915
#        164213
#
# Disc length: 3565 seconds
#
# Revision: 10
# Processed by: cddbd v1.5.2PL0 Copyright (c) Steve Scherf et al.
# Submitted via: ExactAudioCopy v0.99pb5
#
DISCID=2a0deb03
DTITLE=Mahler - Symphonie Nr. 9 (Sätze 3+4) and 10 (Adagio) (Inbal, RSO 
DTITLE=Frankfurt)
DYEAR=1986
DGENRE=Symphonie
TTITLE0=Symphonie Nr. 9 - III. Rondo - Burleske - Allegro assai, sehr t
TTITLE0=rotzig
TTITLE1=IV. Adagio
TTITLE2=Symphony Nr. 10 - Adagio
EXTD=Radio-Sinfonie-Orchester Frankfurt - Eliahu Inbal\nRecording 24-2
EXTD=7 September 1986\nAlte Oper Frankfurt\nLicensed from Denon/Nippon
EXTD=Columbia Ltd. Japan\nBrilliant Classics 92005/13
EXTT0=
EXTT1=
EXTT2=
PLAYORDER=
